<?xml version="1.0" encoding="utf-8"?>
<!-- Generator: Adobe Illustrator 21.0.0, SVG Export Plug-In . SVG Version: 6.00 Build 0)  -->
<svg version="1.1" id="Слой_1" xmlns="http://www.w3.org/2000/svg" xmlns:xlink="http://www.w3.org/1999/xlink" x="0px" y="0px"
	 viewBox="0 0 210.8 64" style="enable-background:new 0 0 210.8 64;" xml:space="preserve">
<style type="text/css">
	.st0{fill:#000;}
</style>
<g>
	<g>
		<polygon class="st0" points="59.4,29.4 30,29.4 59.4,0 		"/>
		<polygon class="st0" points="0,59.4 0,30 29.4,30 		"/>
		<rect x="30" y="30" class="st0" width="29.4" height="29.4"/>
		<path class="st0" d="M0,0v29.4h29.4V0H0z M20.5,21.6c0.2,0,0.3,0.1,0.3,0.3c0,0.1-0.1,0.3-0.3,0.3h-4.7c-0.2,0-0.3-0.1-0.3-0.3
			c0-0.1,0.1-0.3,0.3-0.3c0.5,0,0.9-0.6,0.9-1.1v-3c0-1.8-0.9-3.2-1.9-3.2c-1.1,0-1.9,1.4-1.9,3.2v2.9c0,0.5,0.3,1.1,0.9,1.1
			c0.2,0,0.3,0.1,0.3,0.3c0,0.1-0.1,0.3-0.3,0.3H8.9c-0.2,0-0.3-0.1-0.3-0.3c0-0.1,0.1-0.3,0.3-0.3c0.5,0,0.9-0.6,0.9-1.1V9.1
			c0-0.5-0.3-1.1-0.9-1.1C8.7,8.1,8.6,8,8.6,7.8c0-0.1,0.1-0.3,0.3-0.3h4.7c0.2,0,0.3,0.1,0.3,0.3c0,0.1-0.1,0.3-0.3,0.3
			c-0.5,0-0.9,0.6-0.9,1.1V14c0.4-1,1.1-1.7,1.9-1.7c0.8,0,1.5,0.7,1.9,1.7V9.1c0-0.5-0.3-1.1-0.9-1.1c-0.2,0-0.3-0.1-0.3-0.3
			c0-0.1,0.1-0.3,0.3-0.3h4.7c0.2,0,0.3,0.1,0.3,0.3c0,0.1-0.1,0.3-0.3,0.3c-0.5,0-0.9,0.6-0.9,1.1v11.4
			C19.6,21,19.9,21.6,20.5,21.6z"/>
	</g>
	<g>
		<path class="st0" d="M92.3,29.4h-3.9v-7.7h-7.3v7.7h-3.9V11.6h3.9v6.7h7.3v-6.7h3.9V29.4z"/>
		<path class="st0" d="M101.4,29.8c-4,0-6.7-2.7-6.7-6.9c0-4.1,2.7-6.8,6.7-6.8c4,0,6.6,2.7,6.6,6.8C108,27.1,105.4,29.8,101.4,29.8
			z M101.3,18.8c-1.9,0-3.1,1.6-3.1,4.1c0,2.7,1.2,4.2,3.1,4.2c2,0,3.1-1.6,3.1-4.2C104.5,20.3,103.3,18.8,101.3,18.8z"/>
		<path class="st0" d="M117.7,16.5c2.3,0,4.1,1,4.1,3.3c0,1.3-0.7,2.2-1.8,2.7c1.3,0.4,2.4,1.4,2.4,3.2c0,2.5-2,3.9-4.4,3.9h-7.8
			V16.5H117.7z M116.1,21.6c1.1,0,2.1-0.2,2.1-1.5c0-1.3-1-1.5-2.1-1.5h-2.4v2.9H116.1z M116.4,27.1c1.2,0,2.4-0.2,2.4-1.7
			c0-1.5-1.2-1.7-2.5-1.7h-2.5v3.4H116.4z"/>
		<path class="st0" d="M130.7,29.4h-6.2V16.5h3.5v4.4h2.8c2.6,0,4.7,1.4,4.7,4.2C135.6,28,133.5,29.4,130.7,29.4z M128,26.9h1.8
			c1.3,0,2.2-0.6,2.2-1.8c0-1.3-1-1.8-2.2-1.8H128V26.9z M140.7,16.5v12.9h-3.5V16.5H140.7z"/>
		<path class="st0" d="M152.1,29.4v-8.7l-4.6,8.7h-4V16.5h3.4v8.7l4.6-8.7h4v12.9H152.1z M153.5,11.6c0,2.6-1.7,3.6-4.1,3.6
			c-2.4,0-4.1-1-4.1-3.6h1.4c0.2,1.2,1.3,1.7,2.7,1.7c1.4,0,2.5-0.5,2.7-1.7H153.5z"/>
		<path class="st0" d="M92.3,59.4h-3.9V47.1h-0.1l-6.7,12.4h-4.4V41.6h3.9v12.3h0.1l6.7-12.3h4.4V59.4z"/>
		<path class="st0" d="M101.2,59.8c-4,0-6.6-2.7-6.6-6.8c0-4,2.7-6.9,6.5-6.9c3.9,0,6.4,2.9,6.4,7.4v0.4h-9.3c0.1,2.2,1.1,3.4,3,3.4
			c1.3,0,2.1-0.6,2.6-1.9h3.4C106.5,58.2,104.1,59.8,101.2,59.8z M101.1,48.7c-1.6,0-2.7,1.1-2.9,2.9h5.7
			C103.7,50,102.9,48.7,101.1,48.7z"/>
		<path class="st0" d="M112.8,48.1c1-1.3,2.4-2,4-2c3.5,0,5.8,2.7,5.8,6.9c0,4.1-2.2,6.7-5.6,6.7c-1.6,0-3-0.6-4-1.9V64h-3.5V46.5
			h3.4V48.1z M112.9,53c0,2.5,1.2,4,3.1,4c1.9,0,3.1-1.5,3.1-3.9c0-2.5-1.2-4-3.1-4C114,49,112.9,50.5,112.9,53z"/>
		<path class="st0" d="M131.4,59.4c-1.1,2.9-1.7,4.7-4.9,4.7c-1.1,0-0.7,0-2.4,0v-2.9h1.7c1.2,0,1.8-0.7,1.8-1.7
			c0-0.1,0-0.4-0.1-0.5l-4.7-12.3h3.8l3,8.8l2.9-8.8h3.7L131.4,59.4z"/>
		<path class="st0" d="M143.1,59.7c-4,0-6.6-2.7-6.6-6.7c0-4.2,2.6-6.9,6.6-6.9c3.5,0,5.8,1.9,6.1,4.9h-3.5
			c-0.2-1.4-1.2-2.2-2.6-2.2c-1.9,0-3.1,1.6-3.1,4.2c0,2.6,1.1,4.1,3,4.1c1.5,0,2.5-0.9,2.8-2.6h3.4
			C148.8,57.8,146.5,59.7,143.1,59.7z"/>
		<path class="st0" d="M159.7,59.4c-0.2-0.5-0.2-0.7-0.2-1.3c-1.1,1.1-2.6,1.6-4.2,1.6c-2.9,0-4.6-1.5-4.6-3.9
			c0-3.4,3.1-3.8,5.6-4.1c2.3-0.3,3.2-0.5,3.2-1.6c0-1.2-0.8-1.7-2.3-1.7c-1.6,0-2.3,0.5-2.6,2h-3.3c0.2-2.9,2.3-4.4,6-4.4
			c2.6,0,5.6,0.6,5.6,4.2v5.6c0,1.2,0,2.4,0.5,3.5H159.7z M156.9,53.8c-1.2,0.2-2.6,0.4-2.6,1.9c0,1.1,0.7,1.7,2,1.7
			c1.9,0,3.2-1,3.2-2.9v-1.5C158.6,53.6,157.8,53.7,156.9,53.8z"/>
		<path class="st0" d="M174.3,59.4V49.2h-3.4l-0.2,4.6c-0.1,2.7-0.3,6-4.2,6c-0.5,0-1.6-0.1-1.9-0.3v-2.8c0.2,0.1,0.6,0.1,1,0.1
			c1,0,1.6-0.8,1.6-2.7l0.2-7.7h10.4v12.9H174.3z"/>
		<path class="st0" d="M189.4,59.4v-8.7l-4.6,8.7h-4V46.5h3.4v8.7l4.6-8.7h4v12.9H189.4z"/>
		<path class="st0" d="M207.5,59.4v-9.8h-0.1l-2.5,9.8h-3.4l-2.5-9.8h-0.1v9.8h-3.4V46.5h5.2l2.4,9.4h0.1l2.4-9.4h5.2v12.9H207.5z"
			/>
	</g>
	<g>
		<path class="st0" d="M228.8,24.1V13.7h6.9v1.2h-5.5v9.3H228.8z"/>
		<path class="st0" d="M241.1,20.3c0,2.6-1.3,4.1-3.6,4.1c-2.3,0-3.7-1.5-3.7-4s1.4-4,3.7-4C239.8,16.3,241.1,17.8,241.1,20.3z
			 M235.1,20.3c0,1.9,0.9,3,2.4,3c1.5,0,2.4-1.1,2.4-3c0-1.8-0.9-3-2.4-3C236,17.4,235.1,18.5,235.1,20.3z"/>
		<path class="st0" d="M245.8,24.4c-2.4,0-3.6-1.6-3.6-3.9c0-2.5,1.4-4.1,3.6-4.1c1.9,0,3,1,3.2,2.7h-1.3c-0.2-1.1-0.9-1.6-1.9-1.6
			c-1.4,0-2.4,1.1-2.4,3c0,1.9,0.9,3,2.3,3c1.1,0,1.9-0.7,2.1-1.9h1.3C248.9,23.2,247.7,24.4,245.8,24.4z"/>
		<path class="st0" d="M253.4,25.1c-0.4,1.1-0.8,2.1-2.2,2.1c-0.3,0-0.6-0.1-0.9-0.1v-1.1c0.4,0.1,0.6,0.2,0.8,0.2
			c0.4,0,0.7-0.3,0.9-0.6l0.6-1.4l-3-7.5h1.4l2.2,6l2.1-6h1.3L253.4,25.1z"/>
		<path class="st0" d="M263.4,26.5v-2.4h-5.8v2.4h-1.2V23h0.8c0.4-0.8,1-3,1-4.9v-1.6h5.4V23h1v3.5H263.4z M262.3,17.6h-2.9v0.6
			c0,1.9-0.5,3.9-0.9,4.7h3.8V17.6z"/>
		<path class="st0" d="M272.5,24.1c-0.3,0.1-0.6,0.1-0.9,0.1c-0.7,0-1.1-0.4-1.1-1.1c-0.7,0.8-1.6,1.2-2.7,1.2
			c-1.5,0-2.4-0.8-2.4-2.1c0-1.4,0.9-2.1,2.7-2.4c1.8-0.2,2.4-0.2,2.4-1.2c0-0.8-0.6-1.3-1.7-1.3c-1.2,0-1.8,0.4-1.9,1.5h-1.2
			c0-1.6,1.2-2.6,3.2-2.6c1,0,1.9,0.3,2.4,0.7c0.5,0.5,0.5,1.3,0.5,2c0,1.1-0.1,2.2-0.1,3.4c0,0.6,0.1,0.7,0.5,0.7
			c0.1,0,0.2,0,0.3,0V24.1z M268.8,20.6c-0.9,0.1-2.1,0.2-2.1,1.4c0,0.8,0.6,1.3,1.5,1.3c1.2,0,2.3-0.8,2.3-1.8v-1.4
			C270,20.5,269.4,20.6,268.8,20.6z"/>
		<path class="st0" d="M274.8,17.6c0.6-0.9,1.4-1.3,2.6-1.3c2.1,0,3.5,1.5,3.5,4c0,2.5-1.3,4-3.4,4c-1.1,0-1.9-0.4-2.5-1.3v4h-1.2
			V16.5h1.2V17.6z M274.8,20.3c0,1.8,0.9,3,2.4,3c1.4,0,2.3-1.1,2.3-3c0-1.8-0.9-3-2.4-3C275.7,17.4,274.8,18.5,274.8,20.3z"/>
		<path class="st0" d="M285.5,24.4c-2.4,0-3.6-1.6-3.6-3.9c0-2.5,1.4-4.1,3.6-4.1c1.9,0,3,1,3.2,2.7h-1.3c-0.2-1.1-0.9-1.6-1.9-1.6
			c-1.4,0-2.4,1.1-2.4,3c0,1.9,0.9,3,2.3,3c1.1,0,1.9-0.7,2.1-1.9h1.3C288.6,23.2,287.4,24.4,285.5,24.4z"/>
		<path class="st0" d="M293.4,17.6v6.5h-1.2v-6.5h-2.7v-1.1h6.7v1.1H293.4z"/>
		<path class="st0" d="M297.1,16.5h3.5c1.3,0,2.6,0.3,2.6,1.8c0,0.8-0.4,1.3-1.1,1.6v0c0.9,0.2,1.4,0.9,1.4,1.9c0,1.3-1,2.2-2.3,2.2
			h-4.1V16.5z M301.9,18.6c0-0.6-0.3-1-1.4-1h-2.2v2h2.2C301.6,19.6,301.9,19.2,301.9,18.6z M298.3,23.1h2.7c0.8,0,1.3-0.5,1.3-1.3
			c0-0.7-0.4-1.1-1.5-1.1h-2.5V23.1z"/>
		<path class="st0" d="M308.1,24.4c-2.2,0-3.6-1.5-3.6-3.9c0-2.5,1.4-4.1,3.5-4.1c2.5,0,3.4,2,3.4,4.2v0.2h-5.7l0,0.1
			c0,1.6,0.9,2.6,2.4,2.6c1.1,0,1.7-0.5,2-1.6h1.2C311.1,23.5,309.9,24.4,308.1,24.4z M308.1,17.4c-1.2,0-2.1,0.9-2.2,2.3h4.4
			C310.1,18.2,309.3,17.4,308.1,17.4z"/>
		<path class="st0" d="M312.8,24.1v-7.6h1.2v3h3.8v-3h1.3v7.6h-1.3v-3.5h-3.8v3.5H312.8z"/>
		<path class="st0" d="M320.9,24.1v-7.6h1.2v3h3.8v-3h1.3v7.6H326v-3.5h-3.8v3.5H320.9z"/>
		<path class="st0" d="M332.6,24.1H329v-7.6h1.2v2.9h2.4c1.5,0,2.5,0.9,2.5,2.3C335.1,23.2,334.1,24.1,332.6,24.1z M330.2,20.5V23h2
			c1,0,1.6-0.5,1.6-1.3c0-0.8-0.5-1.2-1.6-1.2H330.2z M337.5,16.5v7.6h-1.2v-7.6H337.5z"/>
		<path class="st0" d="M339.3,24.1v-7.6h1.2v6.2h0l3.4-6.2h1.6v7.6h-1.3v-6.2h0l-3.4,6.2H339.3z M342.5,15.7c-1.2,0-2.1-0.9-2.2-2
			h0.7c0.2,0.7,0.7,1.1,1.5,1.1c0.8,0,1.2-0.4,1.5-1.1h0.7C344.5,14.8,343.7,15.7,342.5,15.7z"/>
		<path class="st0" d="M228.8,31.3h1.4v8.9h0l5.1-8.9h1.7v10.5h-1.4v-8.9h0l-5.1,8.9h-1.7V31.3z"/>
		<path class="st0" d="M242.2,42c-2.4,0-3.6-1.6-3.6-3.9c0-2.5,1.4-4.1,3.6-4.1c1.9,0,3,1,3.2,2.7h-1.3c-0.2-1.1-0.9-1.6-1.9-1.6
			c-1.4,0-2.4,1.1-2.4,3c0,1.9,0.9,3,2.3,3c1.1,0,1.9-0.7,2.1-1.9h1.3C245.3,40.8,244.1,42,242.2,42z"/>
		<path class="st0" d="M250.1,35.3v6.5h-1.2v-6.5h-2.7v-1.1h6.7v1.1H250.1z"/>
		<path class="st0" d="M260.7,37.9c0,2.6-1.3,4.1-3.6,4.1c-2.3,0-3.7-1.5-3.7-4c0-2.5,1.4-4,3.7-4C259.3,34,260.7,35.4,260.7,37.9z
			 M254.6,38c0,1.9,0.9,3,2.4,3c1.5,0,2.4-1.1,2.4-3c0-1.8-0.9-3-2.4-3C255.5,35,254.6,36.2,254.6,38z"/>
		<path class="st0" d="M263.2,35.3c0.6-0.9,1.4-1.3,2.6-1.3c2.1,0,3.5,1.5,3.5,4c0,2.5-1.3,4-3.4,4c-1.1,0-1.9-0.4-2.5-1.2v4h-1.2
			V34.2h1.2V35.3z M263.3,37.9c0,1.8,0.9,3,2.4,3c1.4,0,2.3-1.1,2.3-3c0-1.8-0.9-3-2.4-3C264.1,35,263.3,36.1,263.3,37.9z"/>
		<path class="st0" d="M270.7,41.8v-7.6h1.2v6.2h0l3.4-6.2h1.6v7.6h-1.3v-6.2h0l-3.4,6.2H270.7z"/>
		<path class="st0" d="M284,41.8l-2.8-3.7l-1.2,1.2v2.6h-1.2v-7.6h1.2v3.6l3.5-3.6h1.7l-3.1,3l3.5,4.6H284z"/>
		<path class="st0" d="M293,37.9c0,2.6-1.3,4.1-3.6,4.1c-2.3,0-3.7-1.5-3.7-4c0-2.5,1.4-4,3.7-4S293,35.4,293,37.9z M286.9,38
			c0,1.9,0.9,3,2.4,3c1.5,0,2.4-1.1,2.4-3c0-1.8-0.9-3-2.4-3C287.8,35,286.9,36.2,286.9,38z"/>
		<path class="st0" d="M298.6,38.3h-4.3v-1.2h4.3V38.3z"/>
		<path class="st0" d="M303.2,37.7l3,4.1h-1.6l-2.1-3.1l-2.1,3.1h-1.5l2.9-4l-2.6-3.6h1.6l1.8,2.6l1.9-2.6h1.5L303.2,37.7z"/>
		<path class="st0" d="M310.5,42.7c-0.4,1.1-0.8,2.1-2.2,2.1c-0.3,0-0.6-0.1-0.9-0.1v-1.1c0.4,0.1,0.6,0.2,0.8,0.2
			c0.4,0,0.7-0.3,0.9-0.6l0.6-1.4l-3-7.5h1.4l2.2,6l2.1-6h1.3L310.5,42.7z"/>
		<path class="st0" d="M320.4,44.2v-2.4h-5.8v2.4h-1.2v-3.5h0.8c0.4-0.8,1-3,1-4.9v-1.6h5.4v6.5h1v3.5H320.4z M319.4,35.3h-2.9v0.6
			c0,1.9-0.5,3.9-0.9,4.7h3.8V35.3z"/>
		<path class="st0" d="M329.6,37.9c0,2.6-1.3,4.1-3.6,4.1c-2.3,0-3.7-1.5-3.7-4c0-2.5,1.4-4,3.7-4S329.6,35.4,329.6,37.9z M323.5,38
			c0,1.9,0.9,3,2.4,3c1.5,0,2.4-1.1,2.4-3c0-1.8-0.9-3-2.4-3C324.4,35,323.5,36.2,323.5,38z"/>
		<path class="st0" d="M331.2,41.8h-1.5l3.3-4.5l-2.9-3.1h1.5l3.1,3.5h0v-3.5h1.2v3.5h0l3.1-3.5h1.5l-2.9,3.1l3.3,4.5h-1.5l-2.6-3.7
			l-0.9,1v2.7h-1.2v-2.7l-0.9-1L331.2,41.8z"/>
		<path class="st0" d="M344.8,42c-2.2,0-3.6-1.5-3.6-3.9c0-2.5,1.4-4.1,3.5-4.1c2.5,0,3.4,2,3.4,4.2v0.2h-5.7l0,0.1
			c0,1.6,0.9,2.6,2.4,2.6c1.1,0,1.7-0.5,2-1.6h1.2C347.7,41.1,346.6,42,344.8,42z M344.7,35c-1.2,0-2.1,0.9-2.2,2.3h4.4
			C346.8,35.9,346,35,344.7,35z"/>
		<path class="st0" d="M352.8,42c-2.4,0-3.6-1.6-3.6-3.9c0-2.5,1.4-4.1,3.6-4.1c1.9,0,3,1,3.2,2.7h-1.3c-0.2-1.1-0.9-1.6-1.9-1.6
			c-1.4,0-2.4,1.1-2.4,3c0,1.9,0.9,3,2.3,3c1.1,0,1.9-0.7,2.1-1.9h1.3C355.9,40.8,354.7,42,352.8,42z"/>
		<path class="st0" d="M360.6,35.3v6.5h-1.2v-6.5h-2.7v-1.1h6.7v1.1H360.6z"/>
		<path class="st0" d="M364.4,34.2h3.5c1.3,0,2.6,0.3,2.6,1.8c0,0.8-0.4,1.3-1.1,1.6v0c0.9,0.2,1.4,0.9,1.4,1.9c0,1.3-1,2.2-2.3,2.2
			h-4.1V34.2z M369.2,36.2c0-0.6-0.3-1-1.4-1h-2.2v2h2.2C368.8,37.2,369.2,36.9,369.2,36.2z M365.6,40.7h2.7c0.8,0,1.3-0.5,1.3-1.3
			c0-0.7-0.4-1.1-1.5-1.1h-2.5V40.7z"/>
		<path class="st0" d="M375.4,42c-2.2,0-3.6-1.5-3.6-3.9c0-2.5,1.4-4.1,3.5-4.1c2.5,0,3.4,2,3.4,4.2v0.2h-5.7l0,0.1
			c0,1.6,0.9,2.6,2.4,2.6c1.1,0,1.7-0.5,2-1.6h1.2C378.3,41.1,377.2,42,375.4,42z M375.3,35c-1.2,0-2.1,0.9-2.2,2.3h4.4
			C377.4,35.9,376.6,35,375.3,35z"/>
		<path class="st0" d="M380.1,41.8v-7.6h1.2v3h3.8v-3h1.3v7.6h-1.3v-3.5h-3.8v3.5H380.1z"/>
		<path class="st0" d="M388.2,41.8v-7.6h1.2v3h3.8v-3h1.3v7.6h-1.3v-3.5h-3.8v3.5H388.2z"/>
		<path class="st0" d="M399.9,41.8h-3.7v-7.6h1.2v2.9h2.4c1.5,0,2.5,0.9,2.5,2.3C402.3,40.8,401.4,41.8,399.9,41.8z M397.5,38.2v2.5
			h2c1,0,1.6-0.5,1.6-1.3c0-0.8-0.5-1.2-1.6-1.2H397.5z M404.8,34.2v7.6h-1.2v-7.6H404.8z"/>
		<path class="st0" d="M406.6,41.8v-7.6h1.2v6.2h0l3.4-6.2h1.6v7.6h-1.3v-6.2h0l-3.4,6.2H406.6z M409.7,33.3c-1.2,0-2.1-0.9-2.2-2
			h0.7c0.2,0.7,0.7,1.1,1.5,1.1c0.8,0,1.2-0.4,1.5-1.1h0.7C411.7,32.5,411,33.3,409.7,33.3z"/>
		<path class="st0" d="M230.8,48.9l3.4,8.9l3.2-8.9h1.9v10.5H238v-8.7l-3.3,8.7h-1.2l-3.3-8.7v8.7h-1.3V48.9H230.8z"/>
		<path class="st0" d="M244.3,60.4c-0.4,1.1-0.8,2.1-2.2,2.1c-0.3,0-0.6-0.1-0.9-0.1v-1.1c0.4,0.1,0.6,0.2,0.8,0.2
			c0.4,0,0.7-0.3,0.9-0.6l0.6-1.4l-3-7.5h1.4l2.2,6l2.1-6h1.3L244.3,60.4z"/>
		<path class="st0" d="M251.3,51.6c1.6,0,2.9,0.6,2.9,2c0,0.9-0.6,1.5-1.2,1.6v0c0.7,0.1,1.5,0.7,1.5,1.9c0,1.6-1.5,2.5-3.1,2.5
			c-2,0-3.2-1-3.3-2.6h1.3c0.1,1.1,0.9,1.6,2,1.6c1.2,0,1.9-0.7,1.9-1.4c0-0.8-0.5-1.2-1.6-1.2h-1v-1h0.8c0.9,0,1.6-0.3,1.6-1.2
			c0-0.6-0.6-1.1-1.6-1.1c-0.9,0-1.8,0.4-1.9,1.4h-1.3C248.3,52.1,249.8,51.6,251.3,51.6z"/>
		<path class="st0" d="M259,59.7c-2.2,0-3.6-1.5-3.6-3.9c0-2.5,1.4-4.1,3.5-4.1c2.5,0,3.4,2,3.4,4.2V56h-5.7l0,0.1
			c0,1.6,0.9,2.6,2.4,2.6c1.1,0,1.7-0.5,2-1.6h1.2C262,58.8,260.8,59.7,259,59.7z M259,52.6c-1.2,0-2.1,0.9-2.2,2.3h4.4
			C261,53.5,260.2,52.6,259,52.6z"/>
		<path class="st0" d="M263.7,59.4v-7.6h1.2V58h0l3.4-6.2h1.6v7.6h-1.3v-6.2h0l-3.4,6.2H263.7z M266.9,51c-1.2,0-2.1-0.9-2.2-2h0.7
			c0.2,0.7,0.7,1.1,1.5,1.1c0.8,0,1.2-0.4,1.5-1.1h0.7C268.9,50.1,268.2,51,266.9,51z"/>
	</g>
</g>
</svg>
