<svg width="94" height="94" fill="none" xmlns="http://www.w3.org/2000/svg"><g clip-path="url(#clip0)"><path d="M47 0a46 46 0 100 92 46 46 0 000-92zm-.197 3.287a42.778 42.778 0 11.001 85.557 42.778 42.778 0 010-85.557z" fill="url(#paint0_linear)" stroke="url(#paint1_linear)" stroke-width=".201"/><g filter="url(#filter0_d)"><circle cx="46.75" cy="46.25" r="43.25" fill="url(#paint2_radial)"/></g><path d="M41.27 48.51h29.05L47.46 67.975l-.518.44h7.862l-12.58 11.242-11.29-11.108h7.303l.036-.206 1.892-10.625.052-.293H11.31l8.27-39.175h50.29L41.09 48.087l-.41.423h.59z" fill="#FEF100" stroke="#FEE500" stroke-width=".5" stroke-miterlimit="4.134" stroke-linecap="round"/><path d="M17.525 51.88h-1.322l-.642 4.053h-.897l.643-4.054H14l.132-.812h3.525l-.132.812zm2.834 1.944H18.65l-.208 1.303h2.007l-.128.806h-2.904l.774-4.866h2.898l-.132.812H18.96l-.187 1.16h1.714l-.128.785zm2.524-1.086l1.05-1.67h1.077l-1.637 2.459.924 2.406h-.992l-.584-1.698-1.074 1.698h-1.09l1.674-2.5-.896-2.366h.979l.569 1.671zm5.404 3.195h-.897l.33-2.086h-1.728l-.334 2.086h-.896l.774-4.866h.897l-.316 1.972h1.732l.313-1.972h.896l-.771 4.866zm2.592.067a1.487 1.487 0 01-.784-.228 1.529 1.529 0 01-.535-.631 2.542 2.542 0 01-.227-.95 4.149 4.149 0 01.108-1.169c.093-.414.244-.779.452-1.093.209-.314.452-.549.732-.705.281-.156.585-.23.912-.224.3.007.562.085.786.234.224.147.4.36.53.639.128.276.201.59.22.942.02.392-.019.795-.117 1.21-.098.414-.25.773-.456 1.076-.206.303-.447.53-.725.681a1.752 1.752 0 01-.896.218zm1.27-2.634l.024-.317c.02-.397-.029-.697-.147-.902a.6.6 0 00-.532-.321c-.374-.014-.67.167-.89.541-.219.374-.342.898-.37 1.57-.021.395.027.7.143.913a.604.604 0 00.542.33c.32.017.585-.12.795-.407.21-.29.348-.698.413-1.226l.022-.18zm5.364-2.299l-.771 4.866h-.9l.642-4.054h-1.14l-.423 2.142c-.143.669-.345 1.152-.606 1.45-.259.297-.588.45-.988.462h-.374l.107-.806.135-.013c.245-.031.446-.168.603-.411.157-.245.275-.63.355-1.153l.055-.35.4-2.133h2.905zM39.336 56a1.487 1.487 0 01-.783-.228 1.529 1.529 0 01-.535-.631 2.542 2.542 0 01-.227-.95 4.149 4.149 0 01.107-1.169c.094-.414.245-.779.453-1.093a2.13 2.13 0 01.732-.705c.281-.156.585-.23.911-.224.3.007.562.085.787.234.224.147.4.36.53.639.128.276.201.59.22.942.02.392-.019.795-.117 1.21-.098.414-.25.773-.456 1.076a2.1 2.1 0 01-.725.681 1.752 1.752 0 01-.897.218zm1.27-2.634l.025-.317c.02-.397-.029-.697-.147-.902a.6.6 0 00-.532-.321c-.374-.014-.67.167-.891.541-.218.374-.342.898-.37 1.57-.02.395.027.7.144.913a.604.604 0 00.541.33c.32.017.586-.12.796-.407.21-.29.348-.698.413-1.226l.021-.18zm4.654-1.486h-1.936l-.646 4.053h-.897l.775-4.866h2.833l-.129.812zm3.272-.813h.93l-.774 4.866h-.9l.505-3.168-2.2 3.168h-.927l.774-4.866h.896l-.505 3.172 2.2-3.172zm4.29 0h.93l-.774 4.866h-.9l.505-3.168-2.2 3.168h-.927l.774-4.866h.896l-.505 3.172 2.2-3.172zm2.842 3.172h-1.677l.123-.78h1.68l-.126.78zm1.671-.021l-.275 1.715h-.897l.774-4.866 1.56.004c.482 0 .86.146 1.136.437.275.292.396.673.361 1.143-.032.477-.215.858-.547 1.143-.331.285-.753.428-1.267.428l-.845-.004zm.126-.812l.746.007a.89.89 0 00.6-.204.84.84 0 00.285-.551c.03-.232-.005-.417-.105-.555a.534.534 0 00-.437-.22l-.845-.004-.244 1.527zM15.593 41.723l1.433-.41c-.012 1.865.515 2.797 1.581 2.797.577 0 1.02-.23 1.331-.69.316-.469.515-1.049.595-1.74.179-1.541-.214-2.312-1.178-2.312h-.73l.226-1.944h.662c.413 0 .762-.19 1.048-.573.29-.388.474-.91.55-1.566.075-.648-.003-1.16-.233-1.534a1.112 1.112 0 00-1.007-.561c-.997 0-1.67.806-2.016 2.42l-1.296-.357c.612-2.802 1.821-4.202 3.628-4.202.911 0 1.589.374 2.033 1.123.45.742.61 1.67.48 2.787-.188 1.613-.818 2.69-1.89 3.23 1.122.432 1.575 1.588 1.356 3.467-.148 1.275-.552 2.359-1.212 3.252-.66.893-1.51 1.34-2.552 1.34-1.006 0-1.747-.411-2.224-1.232-.471-.828-.667-1.926-.585-3.295zm12.517 4.3h-5.438l1.714-14.746h5.382l-.255 2.193H25.64l-.465 3.997h3.115l-.249 2.139h-3.114l-.48 4.126h3.93l-.267 2.29zm1.012 0l1.714-14.746h3.262c.552 0 .998.101 1.338.303.34.202.606.623.797 1.264.191.64.236 1.393.136 2.258-.095.813-.312 1.523-.652 2.128-.34.597-.755.979-1.249 1.145.568.18.964.6 1.19 1.263.225.663.285 1.448.18 2.355-.133 1.138-.456 2.096-.972 2.874-.51.77-1.205 1.156-2.084 1.156h-3.66zm2.423-8.556h1.84c.375 0 .695-.198.957-.594.267-.396.436-.9.507-1.512.079-.677.012-1.174-.2-1.491-.212-.324-.486-.486-.82-.486h-1.81l-.474 4.083zm-.737 6.341h1.95c.412 0 .76-.19 1.041-.572.285-.382.466-.897.541-1.545.072-.62.009-1.127-.19-1.523-.196-.396-.493-.594-.894-.594H31.3l-.492 4.234zm11.288-2.906l1.367.27c-.262 1.477-.728 2.694-1.4 3.652-.666.95-1.453 1.425-2.36 1.425-.764 0-1.346-.338-1.745-1.015-.396-.677-.655-1.595-.778-2.755-.122-1.16-.102-2.437.06-3.834.261-2.247.776-4.073 1.544-5.477.769-1.412 1.682-2.117 2.74-2.117.83 0 1.469.45 1.916 1.35.447.9.645 2.19.593 3.867l-1.428.26c.001-2.226-.438-3.338-1.316-3.338-.564 0-1.058.464-1.48 1.393-.418.922-.73 2.261-.933 4.018-.208 1.786-.197 3.137.031 4.051.23.908.62 1.361 1.173 1.361.44 0 .852-.306 1.234-.918.382-.612.643-1.343.782-2.193z" fill="#000"/></g><defs><linearGradient id="paint0_linear" x1="71" y1="-4.5" x2="39" y2="93.5" gradientUnits="userSpaceOnUse"><stop offset=".036" stop-color="#C1B4B4"/><stop offset=".112" stop-color="#fff"/><stop offset=".246" stop-color="#fff"/><stop offset=".404" stop-color="#B3ADAD"/><stop offset=".566" stop-color="#B7B1B1"/><stop offset=".687" stop-color="#fff"/><stop offset=".783" stop-color="#fff"/><stop offset=".859" stop-color="#fff"/><stop offset=".932" stop-color="#BCB8B8"/><stop offset="1" stop-color="#A9A3A3"/></linearGradient><linearGradient id="paint1_linear" x1="40.957" y1="90.332" x2="61.894" y2="1.6" gradientUnits="userSpaceOnUse"><stop stop-color="#5E5858"/><stop offset=".485" stop-color="#BDB5B5" stop-opacity=".508"/><stop offset="1" stop-color="#837D7D" stop-opacity="0"/></linearGradient><radialGradient id="paint2_radial" cx="0" cy="0" r="1" gradientUnits="userSpaceOnUse" gradientTransform="matrix(-26.74993 33.25 -33.01984 -26.56477 46.75 46.25)"><stop offset=".024" stop-color="#FEFCFC"/><stop offset=".115" stop-color="#FFC7C7"/><stop offset=".347" stop-color="#F08F82"/><stop offset=".627" stop-color="#EA564D"/><stop offset=".847" stop-color="#DE1818"/><stop offset=".961" stop-color="#BB0A0A"/><stop offset="1" stop-color="#720404"/></radialGradient><clipPath id="clip0"><path fill="#fff" d="M0 0h93.333v93.333H0z"/></clipPath><filter id="filter0_d" x="-.5" y="0" width="94.5" height="94.5" filterUnits="userSpaceOnUse" color-interpolation-filters="sRGB"><feFlood flood-opacity="0" result="BackgroundImageFix"/><feColorMatrix in="SourceAlpha" values="0 0 0 0 0 0 0 0 0 0 0 0 0 0 0 0 0 0 127 0"/><feOffset dy="1"/><feGaussianBlur stdDeviation="2"/><feColorMatrix values="0 0 0 0 0 0 0 0 0 0 0 0 0 0 0 0 0 0 0.1 0"/><feBlend in2="BackgroundImageFix" result="effect1_dropShadow"/><feBlend in="SourceGraphic" in2="effect1_dropShadow" result="shape"/></filter></defs></svg>