<svg id="Capa_1" enable-background="new 0 0 512 512" height="512" viewBox="0 0 512 512" width="512" xmlns="http://www.w3.org/2000/svg"><g><path fill="#ffffff" d="m509.499 60c1.469-4.523 2.501-9.194 2.501-14.048 0-25.342-21.61-45.952-46.952-45.952h-238.096c-25.342 0-46.952 20.61-46.952 45.952 0 4.854 1.033 9.525 2.501 14.048h58.499v30h-42.873c-8.972 41.483-18.127 100.646-18.127 166s9.155 124.517 18.127 166h42.873v30h-58.499c-1.469 4.523-2.501 9.194-2.501 14.048 0 25.342 21.61 45.952 46.952 45.952h238.096c25.342 0 46.952-20.61 46.952-45.952 0-4.854-1.033-9.525-2.501-14.048h-58.499v-30h42.873c8.972-41.483 18.127-100.646 18.127-166s-9.155-124.517-18.127-166h-42.873v-30zm-148.499 0h60v30h-60zm-90 0h60v30h-60zm60 392h-60v-30h60zm90 0h-60v-30h60zm41.499-121h-232.998l77.915-129.844c8.203-13.682 22.632-21.841 38.584-21.841s30.381 8.159 38.584 21.841z"/><path fill="#ffffff" d="m346 209.315c-2.549 0-8.921.703-12.861 7.28l-50.64 84.405h127.002l-50.64-84.404c-3.94-6.577-10.312-7.281-12.861-7.281z"/><path fill="#ffffff" d="m0 466.048c0 25.342 20.61 45.952 45.952 45.952h29.94c-9.82-12.799-15.892-28.61-15.892-45.952 0-17.417 6.035-34.175 16.714-47.505-8.291-40.796-16.714-98.91-16.714-162.543 0-63.677 8.437-121.82 16.729-162.616-10.752-13.433-16.729-30.103-16.729-47.432 0-17.342 6.072-33.153 15.892-45.952h-29.94c-25.342 0-45.952 20.61-45.952 45.952 0 14.722 7.134 28.667 19.102 37.28l.41.293c-9.39 41.763-19.512 103.759-19.512 172.475s10.122 130.712 19.512 172.475l-.425.293c-11.953 8.613-19.087 22.558-19.087 37.28z"/><path fill="#ffffff" d="m90 466.048c0 25.342 20.61 45.952 45.952 45.952h29.94c-9.82-12.799-15.892-28.61-15.892-45.952 0-17.417 6.035-34.175 16.714-47.505-8.291-40.796-16.714-98.91-16.714-162.543 0-63.677 8.437-121.82 16.729-162.616-10.752-13.433-16.729-30.103-16.729-47.432 0-17.342 6.072-33.153 15.892-45.952h-29.94c-25.342 0-45.952 20.61-45.952 45.952 0 14.722 7.134 28.667 19.102 37.28l.41.293c-9.39 41.763-19.512 103.759-19.512 172.475s10.122 130.712 19.512 172.475l-.425.293c-11.953 8.613-19.087 22.558-19.087 37.28z"/></g></svg>
