<svg id="Capa_1" enable-background="new 0 0 512 512" height="512" viewBox="0 0 512 512" width="512" xmlns="http://www.w3.org/2000/svg"><g><path fill="#ffffff" d="m388.364 130.018-33.814-86.44c4.666-2.543 7.833-7.491 7.833-13.179 0-8.284-6.716-15-15-15h-175.66c-8.284 0-15 6.716-15 15 0 7.181 5.049 13.175 11.788 14.647l-33.214 84.972z"/><path fill="#ffffff" d="m497 124.706c-8.284 0-15 6.716-15 15v51.248h-88.875v-30.937h-262.62v30.937h-30.828v-72.562c0-8.284-6.716-15-15-15h-40.271c-4.829 0-9.363 2.325-12.181 6.246l-29.406 40.919c-1.833 2.55-2.819 5.612-2.819 8.754v120.595c0 8.284 6.716 15 15 15h19.839v171.696h-16.281c-8.284 0-15 6.716-15 15s6.716 15 15 15h62.562c8.284 0 15-6.716 15-15s-6.716-15-15-15h-16.281v-44.159h326.827c-2.931 6.437-4.578 13.578-4.578 21.1 0 28.177 22.923 51.1 51.1 51.1s51.1-22.923 51.1-51.1c0-22.958-15.221-42.425-36.1-48.849v-173.74h28.812v51.247c0 8.284 6.716 15 15 15s15-6.716 15-15v-132.495c0-8.284-6.716-15-15-15zm-58.812 339.936c-11.634 0-21.1-9.465-21.1-21.1s9.465-21.1 21.1-21.1 21.1 9.465 21.1 21.1-9.466 21.1-21.1 21.1zm-15-72.2h-358.349v-97.537h19.838c8.284 0 15-6.716 15-15v-58.951h30.828v10.358c0 72.404 58.906 131.31 131.311 131.31 72.404 0 131.31-58.905 131.31-131.31v-10.358h30.063v171.488z"/></g></svg>
