<svg id="Layer_1" enable-background="new 0 0 512 512" height="512" viewBox="0 0 512 512" width="512" xmlns="http://www.w3.org/2000/svg"><g id="_x34_8_Cement_Truck"><g><path fill="#ffffff" d="m420.467 234.083v31.556c0 7.784 6.218 14.054 13.95 14.054h71.576l-12.747-59.507h-58.828c-7.734 0-13.951 6.217-13.951 13.897z"/><path fill="#ffffff" d="m511.791 306.599-1.306-6.009h-76.068c-19.226 0-34.847-15.673-34.847-34.952v-31.556c0-19.174 15.621-34.795 34.847-34.795h54.334l-3.187-14.733c-2.56-12.329-13.741-21.316-26.488-21.316h-78.263c-14.89 0-27.01 12.12-27.01 27.01v107.468h-220.787v-20.897h181.76l18.129-38.818v-45.714l-33.75-40.281c-1.289-1.862-3.093-3.288-4.441-3.866h-.052l-149.63-70.008c-.232-.23-2.468-.992-4.441-.992l-54.543.052c-12.643 0-24.294 7.367-29.675 18.861l-33.75 72.15c-5.329 11.442-3.553 25.13 4.545 34.9l32.549 38.87v55.746h-21.316c-21.16 0-38.4 17.241-38.4 38.4v26.541c0 16.822 13.689 30.511 30.511 30.511h7.001c-4.02-41.225 29.031-75.651 68.807-75.651 18.379 0 38.513 7.966 51.879 23.562 12.643-14.472 31.19-23.562 51.88-23.562 38.086 0 69.12 30.981 69.12 69.12 0 2.195-.104 4.389-.313 6.531h80.405c-.209-2.142-.313-4.336-.313-6.531 0-38.139 30.981-69.12 69.067-69.12 38.139 0 69.12 30.981 69.12 69.12 0 1.202-.052 2.351-.105 3.553 8.829-4.336 14.942-13.532 14.942-24.085v-57.365c-.002-.733-.055-1.465-.211-2.144zm-399.673-8.881h-31.504v-43.102l31.504 14.733c0-.001 0 28.369 0 28.369z"/><path fill="#ffffff" d="m106.319 338.416c-26.593 0-48.223 21.63-48.223 48.222 0 26.593 21.63 48.223 48.223 48.223 26.54 0 48.17-21.63 48.17-48.223-.001-26.593-21.63-48.222-48.17-48.222z"/><circle fill="#ffffff" cx="210.077" cy="386.638" r="48.222"/><path fill="#ffffff" d="m428.042 338.416c-26.54 0-48.17 21.63-48.17 48.222 0 26.593 21.63 48.223 48.17 48.223 26.593 0 48.223-21.63 48.223-48.223s-21.63-48.222-48.223-48.222z"/></g></g></svg>
