<?xml version="1.0" encoding="iso-8859-1"?>
<!-- Generator: Adobe Illustrator 19.0.0, SVG Export Plug-In . SVG Version: 6.00 Build 0)  -->
<svg version="1.1" id="Capa_1" xmlns="http://www.w3.org/2000/svg" xmlns:xlink="http://www.w3.org/1999/xlink" x="0px" y="0px"
	 viewBox="0 0 512 512" style="enable-background:new 0 0 512 512;" xml:space="preserve">
<g>
	<g>
		<path fill="#ffffff" d="M428.507,0H83.492c-24.813,0-45,20.187-45,45v422c0,24.813,20.187,45,45,45h345.015c24.813,0,45-20.187,45-45V45
			C473.507,20.187,453.32,0,428.507,0z M184.393,420.68c0,8.284-6.716,15-15,15H115.39c-8.284,0-15-6.716-15-15v-47.569
			c0-8.284,6.715-15,15-15h54.004c8.284,0,15,6.716,15,15V420.68z M184.393,305.439c0,8.284-6.716,15-15,15H115.39
			c-8.285,0-15-6.715-15-15V257.87c0-8.284,6.716-15,15-15h54.004c8.284,0,15,6.716,15,15V305.439z M298.002,420.68
			c0,8.284-6.716,15-15,15h-54.004c-8.284,0-15-6.716-15-15v-47.569c0-8.284,6.716-15,15-15h54.004c8.284,0,15,6.716,15,15V420.68z
			 M298.002,305.439c0,8.284-6.716,15-15,15h-54.004c-8.284,0-15-6.715-15-15V257.87c0-8.284,6.716-15,15-15h54.004
			c8.284,0,15,6.716,15,15V305.439z M411.609,420.68c0,8.284-6.716,15-15,15h-54.004c-8.284,0-15-6.716-15-15v-47.569
			c0-8.284,6.716-15,15-15h54.004c8.284,0,15,6.716,15,15V420.68z M411.609,305.439c0,8.284-6.716,15-15,15h-54.004
			c-8.284,0-15-6.715-15-15V257.87c0-8.284,6.716-15,15-15h54.004c8.284,0,15,6.716,15,15V305.439z M411.609,161.123
			c0,8.284-6.716,15-15,15H115.39c-8.284,0-15-6.716-15-15V96.926c0-8.284,6.716-15,15-15h281.22c8.284,0,15,6.716,15,15V161.123z"
			/>
	</g>
</g>
<g>
</g>
<g>
</g>
<g>
</g>
<g>
</g>
<g>
</g>
<g>
</g>
<g>
</g>
<g>
</g>
<g>
</g>
<g>
</g>
<g>
</g>
<g>
</g>
<g>
</g>
<g>
</g>
<g>
</g>
</svg>
