<?xml version="1.0" encoding="UTF-8"?>
<svg id="SVGDoc" width="30" height="6" xmlns="http://www.w3.org/2000/svg" version="1.1" xmlns:xlink="http://www.w3.org/1999/xlink" xmlns:avocode="https://avocode.com/" viewBox="0 0 30 6"><defs></defs><desc>Generated with Avocode.</desc><g><g><title>dots</title><g><title>Эллипс 539</title><path d="M2.99995,-0.0002c1.65688,0 2.99995,1.34326 2.99995,3.00015c0,1.6566 -1.34308,2.99986 -2.99995,2.99986c-1.65688,0 -2.99995,-1.34326 -2.99995,-2.99986c0,-1.6569 1.34308,-3.00015 2.99995,-3.00015z" fill="#ff6600" fill-opacity="1"></path></g><g><title>Эллипс 539 копия 2</title><path d="M15,-0.0002c1.65676,0 2.99995,1.34326 2.99995,3.00015c0,1.6566 -1.34319,2.99986 -2.99995,2.99986c-1.65688,0 -3.00007,-1.34326 -3.00007,-2.99986c0,-1.6569 1.34319,-3.00015 3.00007,-3.00015z" fill="#ff6600" fill-opacity="1"></path></g><g><title>Эллипс 539 копия</title><path d="M26.99993,-0.0002c1.65688,0 3.00007,1.34326 3.00007,3.00015c0,1.6566 -1.34319,2.99986 -3.00007,2.99986c-1.65688,0 -2.99995,-1.34326 -2.99995,-2.99986c0,-1.6569 1.34308,-3.00015 2.99995,-3.00015z" fill="#ff6600" fill-opacity="1"></path></g></g></g></svg>