<svg version="1.1" xmlns="http://www.w3.org/2000/svg" viewBox="0 0 640 262.6">
	<g fill="#1b1c20">
		<path d="M58.1,45.2L0,217.4h33.8l10.8-35.9h60.7l10.6,35.9h34.3L91.7,45.2H58.1z M52.9,153.4l21.9-70.2 l22.2,70.2H52.9z"/>
		<path d="M274.7,127.1c5.2-8.1,7.7-17.7,7.7-28.9c0-10-2.2-18.9-6.5-26.7c-4.3-7.8-10.3-13.8-18.1-17.9 c-2.9-1.5-6-2.9-9.2-4c-3.2-1.1-6.8-2-10.8-2.6c-4-0.6-8.8-1-14.3-1.3c-5.5-0.3-12-0.4-19.6-0.4h-42.9v172.2h33v-65.8h23.8 l35.1,65.8h38.5L252,145.9C262,141.4,269.6,135.2,274.7,127.1z M244.8,112c-2.6,3.9-6.1,6.8-10.6,8.6c-1.6,0.5-3.1,1-4.8,1.4 c-1.6,0.4-3.5,0.7-5.6,0.9c-2.1,0.2-4.5,0.3-7.4,0.4c-2.8,0.1-6.3,0.1-10.5,0.1h-11.9V73.4h9.6c5.7,0,10.3,0,13.9,0.1 c3.6,0.1,6.6,0.3,9,0.6c2.4,0.3,4.4,0.8,6.1,1.3c1.6,0.5,3.3,1.3,5,2.3c7.2,4.3,10.8,11,10.8,20.1 C248.7,103.4,247.4,108.1,244.8,112z"/>
		<polygon points="347.3,235.6 384,227 404.7,160.8 452.3,210.8 489,202.2 416.4,127.3 446.4,35.3 409.7,43.9 391.1,103.3 348.7,58.4 312,67 379,136.1 "/>
		<polygon points="548.8,188.1 580.9,180.5 565.3,114.4 595.9,0 560.5,8.4 541.6,83.4 490.6,24.9 454.7,33.3 533.2,122 "/>
		<polygon points="617.7,178.5 618.8,183 339,249.1 300.5,86.1 305,85.1 294.5,65.5 293.8,87.7 298.3,86.7 336.8,249.6 325.9,252.1 326.4,254.4 337.3,251.8 339.9,262.6 342.1,262.1 339.5,251.3 619.3,185.2 620.4,189.7 640,179.2 "/>
	</g>
</svg>