<svg aria-label="Villagio Realty" class="vi-header__logo" fill="none" height="35" role="img" viewBox="0 0 82 35" width="82" xmlns="http://www.w3.org/2000/svg"><title>Villagio Realty</title><path d="M9.96108 23.3971C10.8749 21.247 12.9775 15.6223 13.3266 14.4622C13.4034 14.2231 13.4703 13.9955 13.4703 13.8551C13.4703 13.722 13.422 13.5544 13.2592 13.4793C13.076 13.4131 12.8422 13.4131 12.6661 13.4131C12.5681 13.4131 12.4904 13.4003 12.4904 13.3171C12.4904 13.2262 12.5903 13.1899 12.8422 13.1899C13.4703 13.1899 14.1906 13.2331 14.3849 13.2331C14.4733 13.2331 15.1467 13.1899 15.6084 13.1899C15.7778 13.1899 15.8732 13.2268 15.8732 13.3026C15.8732 13.3858 15.8062 13.4135 15.6868 13.4135C15.5769 13.4135 15.234 13.4135 14.9302 13.6125C14.7265 13.757 14.4901 14.0247 14.0639 15.1261C13.8908 15.5759 13.1115 17.5043 12.3108 19.4882C11.3442 21.8364 10.6389 23.5858 10.2681 24.3656C9.83249 25.3347 9.77791 25.5914 9.61294 25.5914C9.42212 25.5914 9.34721 25.3669 9.04371 24.5941L5.19168 14.7185C4.85103 13.8233 4.61022 13.642 4.06316 13.4793C3.82495 13.4131 3.55846 13.4131 3.46488 13.4131C3.37254 13.4131 3.33936 13.3603 3.33936 13.3022C3.33936 13.2039 3.4999 13.1894 3.74911 13.1894C4.50457 13.1894 5.4042 13.2326 5.5941 13.2326C5.74623 13.2326 6.45811 13.1894 7.05118 13.1894C7.33649 13.1894 7.47745 13.2262 7.47745 13.3022C7.47745 13.3852 7.43128 13.4131 7.316 13.4131C7.14919 13.4131 6.86496 13.4284 6.72338 13.4939C6.55091 13.5766 6.52202 13.6993 6.52202 13.8229C6.52202 14.0241 6.70518 14.5221 6.93804 15.1556L9.96108 23.3971Z" fill="white"></path><path d="M19.7375 20.6931C19.7375 22.2417 19.7375 23.5171 19.8165 24.1915C19.8586 24.6586 19.9535 25.0085 20.4255 25.0729C20.6523 25.1052 20.9946 25.1356 21.1348 25.1356C21.2342 25.1356 21.2617 25.1898 21.2617 25.2329C21.2617 25.3152 21.184 25.3669 21.0146 25.3669C20.1444 25.3669 19.1533 25.3152 19.0784 25.3152C18.9941 25.3152 18.0067 25.3669 17.5303 25.3669C17.3612 25.3669 17.2793 25.3347 17.2793 25.2329C17.2793 25.1898 17.3108 25.1356 17.4034 25.1356C17.5476 25.1356 17.7392 25.1057 17.8834 25.0729C18.1974 25.008 18.2786 24.6586 18.335 24.1915C18.413 23.5171 18.413 22.2417 18.413 20.6931V17.8624C18.413 15.3504 18.413 14.8952 18.3807 14.3836C18.3514 13.8301 18.1974 13.5548 17.8493 13.4798C17.6754 13.429 17.4713 13.4135 17.3614 13.4135C17.2984 13.4135 17.2371 13.3862 17.2371 13.3176C17.2371 13.2268 17.3108 13.1904 17.4953 13.1904C18.0067 13.1904 18.9941 13.2336 19.0784 13.2336C19.1533 13.2336 20.1444 13.1904 20.6173 13.1904C20.7893 13.1904 20.8669 13.2272 20.8669 13.3176C20.8669 13.3862 20.8004 13.4135 20.7428 13.4135C20.6318 13.4135 20.5361 13.429 20.3453 13.4607C19.9257 13.5448 19.801 13.8233 19.7704 14.3831C19.738 14.8948 19.738 15.35 19.738 17.8619V20.6931" fill="white"></path><path d="M34.9215 20.7175C34.9215 23.0871 34.985 24.1163 35.2706 24.4088C35.5195 24.6648 35.9267 24.78 37.1576 24.78C37.9933 24.78 38.6809 24.7661 39.0584 24.2976C39.2558 24.0363 39.4217 23.6336 39.4639 23.3283C39.4856 23.1989 39.5131 23.1189 39.608 23.1189C39.683 23.1189 39.6998 23.1838 39.6998 23.356C39.6998 23.5405 39.5911 24.5052 39.4639 24.9791C39.3591 25.3363 39.3125 25.4126 38.476 25.4126C37.3408 25.4126 36.5295 25.3727 35.8664 25.359C35.2059 25.3267 34.7197 25.3072 34.2645 25.3072C34.2008 25.3072 33.9337 25.3267 33.6196 25.3267C33.31 25.3363 32.9605 25.359 32.7244 25.359C32.5475 25.359 32.4703 25.3267 32.4703 25.225C32.4703 25.1818 32.5009 25.1277 32.5935 25.1277C32.7347 25.1277 32.925 25.0977 33.066 25.065C33.384 25 33.4621 24.6506 33.5247 24.1835C33.6033 23.5092 33.6033 22.2337 33.6033 20.6852V17.8544C33.6033 15.3425 33.6033 14.8873 33.5734 14.3756C33.5419 13.8222 33.412 13.5691 32.894 13.4532C32.7732 13.4215 32.5009 13.406 32.3546 13.406C32.2972 13.406 32.241 13.3787 32.241 13.3101C32.241 13.2193 32.3115 13.1829 32.485 13.1829C33.1969 13.1829 34.1807 13.226 34.265 13.226C34.3396 13.226 35.4894 13.1829 35.9586 13.1829C36.1317 13.1829 36.2129 13.2197 36.2129 13.3101C36.2129 13.3787 36.148 13.406 36.089 13.406C35.9803 13.406 35.7582 13.4215 35.5666 13.4532C35.1119 13.5373 34.9854 13.8158 34.9539 14.3756C34.922 14.8873 34.922 15.3425 34.922 17.8544V20.7175" fill="white"></path><path d="M26.0968 20.7175C26.0968 23.0871 26.1603 24.1163 26.4459 24.4088C26.6948 24.6648 27.1019 24.78 28.3329 24.78C29.1686 24.78 29.8562 24.7661 30.2337 24.2976C30.4311 24.0363 30.597 23.6336 30.6392 23.3283C30.6609 23.1989 30.6884 23.1189 30.7833 23.1189C30.8583 23.1189 30.8751 23.1838 30.8751 23.356C30.8751 23.5405 30.7664 24.5052 30.6392 24.9791C30.5344 25.3363 30.4878 25.4126 29.6513 25.4126C28.5161 25.4126 27.7048 25.3727 27.0417 25.359C26.3812 25.3267 25.895 25.3072 25.4398 25.3072C25.3761 25.3072 25.109 25.3267 24.7949 25.3267C24.4853 25.3363 24.1358 25.359 23.8997 25.359C23.7228 25.359 23.6456 25.3267 23.6456 25.225C23.6456 25.1818 23.6762 25.1277 23.7688 25.1277C23.91 25.1277 24.1003 25.0977 24.2413 25.065C24.5593 25 24.6374 24.6506 24.7 24.1835C24.7786 23.5092 24.7786 22.2337 24.7786 20.6852V17.8544C24.7786 15.3425 24.7786 14.8873 24.7487 14.3756C24.7172 13.8222 24.5873 13.5691 24.0693 13.4532C23.9485 13.4215 23.6762 13.406 23.5299 13.406C23.4725 13.406 23.4163 13.3787 23.4163 13.3101C23.4163 13.2193 23.4867 13.1829 23.6603 13.1829C24.3722 13.1829 25.356 13.226 25.4403 13.226C25.5149 13.226 26.6647 13.1829 27.1339 13.1829C27.307 13.1829 27.3882 13.2197 27.3882 13.3101C27.3882 13.3787 27.3233 13.406 27.2643 13.406C27.1556 13.406 26.9335 13.4215 26.7419 13.4532C26.2872 13.5373 26.1607 13.8158 26.1292 14.3756C26.0973 14.8873 26.0973 15.3425 26.0973 17.8544V20.7175" fill="white"></path><path d="M47.7609 20.0401C47.8389 20.0401 47.8388 19.9862 47.826 19.928L46.3321 15.5759C46.2523 15.3296 46.1772 15.3296 46.0965 15.5759L44.7129 19.928C44.6898 19.9957 44.7129 20.0401 44.7605 20.0401H47.7609ZM46.1263 13.5956C46.3116 13.06 46.376 12.9659 46.4735 12.9659C46.5729 12.9659 46.6359 13.0463 46.8223 13.5448C47.0528 14.1545 49.5267 20.8104 50.4853 23.2527C51.049 24.6908 51.5154 24.9498 51.8422 25.0407C52.0751 25.1247 52.3049 25.1356 52.4636 25.1356C52.5618 25.1356 52.619 25.1575 52.619 25.2329C52.619 25.3347 52.4806 25.3669 52.3049 25.3669C52.0751 25.3669 50.9218 25.3669 49.8355 25.3347C49.5471 25.3152 49.3701 25.3152 49.3701 25.2224C49.3701 25.1575 49.4163 25.1253 49.4753 25.1058C49.5679 25.0734 49.674 24.9321 49.5679 24.6723L48.109 20.7095C48.0784 20.6468 48.0479 20.6145 47.9635 20.6145H44.5901C44.5129 20.6145 44.4681 20.6577 44.4278 20.7377L43.4859 23.5985C43.3431 23.998 43.2638 24.3801 43.2638 24.6723C43.2638 24.9979 43.6 25.1361 43.8653 25.1361H44.0169C44.1275 25.1361 44.1856 25.1707 44.1856 25.2334C44.1856 25.3351 44.079 25.3675 43.9442 25.3675C43.568 25.3675 42.8942 25.3156 42.7176 25.3156C42.5452 25.3156 41.6775 25.3675 40.9398 25.3675C40.7282 25.3675 40.6409 25.3351 40.6409 25.2334C40.6409 25.1707 40.7065 25.1361 40.7832 25.1361C40.8896 25.1361 41.119 25.1253 41.2428 25.1062C41.9623 25.0089 42.2764 24.3982 42.5629 23.5989L46.1263 13.5956Z" fill="white"></path><path d="M60.9822 21.262C60.9822 19.9575 60.9056 19.7812 60.2774 19.6003C60.1425 19.5612 59.8858 19.5509 59.7426 19.5509C59.6698 19.5509 59.6138 19.5208 59.6138 19.4599C59.6138 19.3608 59.6857 19.3264 59.8637 19.3264C60.5755 19.3264 61.5608 19.3718 61.642 19.3718C61.7209 19.3718 62.711 19.3264 63.1798 19.3264C63.363 19.3264 63.4318 19.3608 63.4318 19.4599C63.4318 19.5208 63.3692 19.5509 63.3107 19.5509C63.198 19.5509 63.1075 19.5612 62.9145 19.6003C62.4936 19.6745 62.365 19.9575 62.3384 20.5178C62.3069 21.0312 62.3069 21.5193 62.3069 22.1904V23.9984C62.3069 24.7204 62.2848 24.7635 62.097 24.8721C61.0932 25.4214 59.6698 25.5924 58.7671 25.5924C57.5686 25.5924 55.339 25.4314 53.5944 23.8674C52.6336 23.0196 51.7234 21.2906 51.7234 19.2836C51.7234 16.7028 52.9401 14.8861 54.353 13.9741C55.7662 13.0795 57.3157 12.9668 58.5249 12.9668C59.5132 12.9668 60.6404 13.1766 60.9255 13.2339C61.2573 13.318 61.8114 13.3866 62.2137 13.4011C62.3646 13.4139 62.397 13.4802 62.397 13.5456C62.397 13.7733 62.2843 14.2241 62.2843 15.8317C62.2843 16.0962 62.2563 16.1688 62.1455 16.1688C62.065 16.1688 62.0473 16.0784 62.0349 15.9252C62.019 15.7027 61.9423 15.2547 61.6987 14.8666C61.3142 14.249 60.0361 13.5548 58.0112 13.5548C57.0171 13.5548 55.8358 13.6597 54.6435 14.6216C53.7341 15.3586 53.0971 16.8327 53.0971 18.7175C53.0971 20.9835 54.2 22.6302 54.7571 23.1768C55.9951 24.4168 57.4235 24.9035 58.8691 24.9035C59.44 24.9035 60.2552 24.7999 60.6686 24.5636C60.8697 24.4504 60.9822 24.2732 60.9822 23.9984V21.262Z" fill="white"></path><path d="M67.0147 20.6931C67.0147 22.2417 67.0147 23.5171 67.0964 24.1915C67.1384 24.6586 67.2333 25.0085 67.704 25.0729C67.9188 25.1052 68.2704 25.1356 68.4044 25.1356C68.5002 25.1356 68.5415 25.1898 68.5415 25.2329C68.5415 25.3152 68.4541 25.3669 68.29 25.3669C67.4165 25.3669 66.4296 25.3152 66.3493 25.3152C66.2712 25.3152 65.294 25.3669 64.8101 25.3669C64.6344 25.3669 64.5603 25.3347 64.5603 25.2329C64.5603 25.1898 64.5896 25.1356 64.6846 25.1356C64.8172 25.1356 65.0217 25.1057 65.1552 25.0729C65.4657 25.008 65.5481 24.6586 65.6104 24.1915C65.6848 23.5171 65.6848 22.2417 65.6848 20.6931V17.8624C65.6848 15.3504 65.6848 14.8952 65.6524 14.3836C65.6218 13.8301 65.4657 13.5548 65.1286 13.4798C64.9445 13.429 64.7502 13.4135 64.6335 13.4135C64.5736 13.4135 64.5071 13.3862 64.5071 13.3176C64.5071 13.2268 64.5896 13.1904 64.763 13.1904C65.2931 13.1904 66.2704 13.2336 66.3484 13.2336C66.4287 13.2336 67.4157 13.1904 67.8824 13.1904C68.0637 13.1904 68.136 13.2272 68.136 13.3176C68.136 13.3862 68.0726 13.4135 68.0172 13.4135C67.9001 13.4135 67.815 13.429 67.6237 13.4607C67.2077 13.5448 67.0772 13.8233 67.0422 14.3831C67.0138 14.8948 67.0138 15.35 67.0138 17.8619V20.6931" fill="white"></path><path d="M75.5441 24.9871C76.9631 24.9871 79.8916 24.1401 79.8916 19.4595C79.8916 15.5926 77.5881 13.5148 75.1103 13.5148C72.4785 13.5148 70.5108 15.2819 70.5108 18.8047C70.5103 22.5588 72.7189 24.9871 75.5441 24.9871ZM75.2101 12.9663C78.7584 12.9663 81.3972 15.2547 81.3972 19.0046C81.3972 22.6102 78.9126 25.5918 75.1218 25.5918C70.8182 25.5918 69.0229 22.1613 69.0229 19.2573C69.0229 16.6483 70.8771 12.9663 75.2101 12.9663Z" fill="white"></path><path d="M33.4373 0L41.0426 7.79317L41.4945 7.33464L34.3328 0H33.4373Z" fill="white"></path><path d="M45.2783 0H44.376L41.5681 2.87123L42.0153 3.33433L45.2783 0Z" fill="white"></path><path d="M42.8773 4.21624L46.9955 0H46.0932L42.4265 3.75688L42.8773 4.21624Z" fill="white"></path><path d="M35.1453 0L41.9289 6.94849L42.3801 6.48456L36.0484 0H35.1453Z" fill="white"></path><path d="M47.754 0L43.261 4.6107L43.7081 5.06951L48.6536 0H47.754Z" fill="white"></path><path d="M36.9585 0L42.8089 5.99018L43.261 5.53123L37.8607 0H36.9585Z" fill="white"></path><path d="M38.3292 7.64551H0V8.07982H38.3292V7.64551Z" fill="url(#paint0_linear)"></path><path d="M81.9998 7.64551H43.6702V8.07982H81.9998V7.64551Z" fill="url(#paint1_linear)"></path><path d="M28.2568 33.2248C28.2568 33.743 28.2568 34.1694 28.227 34.3962C28.2031 34.5527 28.1733 34.6714 28.0541 34.693C28.0004 34.7038 27.9289 34.7146 27.8752 34.7146C27.8394 34.7146 27.8275 34.7308 27.8275 34.747C27.8275 34.7794 27.8573 34.7902 27.9229 34.7902C28.1018 34.7902 28.4774 34.774 28.4834 34.774C28.5132 34.774 28.8889 34.7902 29.2168 34.7902C29.2824 34.7902 29.3122 34.774 29.3122 34.747C29.3122 34.7308 29.3003 34.7146 29.2645 34.7146C29.2109 34.7146 29.0797 34.7038 28.9962 34.693C28.8173 34.6714 28.7815 34.5527 28.7637 34.3962C28.7338 34.1694 28.7338 33.743 28.7338 33.2248V33.0953C28.7338 33.0683 28.7458 33.0521 28.7756 33.0521L29.509 33.0629C29.5448 33.0629 29.5627 33.0737 29.5865 33.0953C29.7058 33.2356 29.9861 33.5973 30.2365 33.8942C30.5764 34.299 30.7851 34.5635 31.0415 34.6876C31.1965 34.7632 31.3456 34.7902 31.6795 34.7902H32.1029C32.2102 34.7902 32.246 34.7794 32.246 34.747C32.246 34.7308 32.2221 34.7146 32.1923 34.7146C32.1565 34.7146 32.0731 34.7146 31.9598 34.6984C31.8107 34.6768 31.5543 34.6175 31.2323 34.3098C30.8864 33.9751 30.481 33.4947 29.992 32.928C30.5287 32.4799 30.7135 32.0805 30.7135 31.6811C30.7135 31.3086 30.4512 31.0441 30.3021 30.947C29.986 30.7419 29.5865 30.7095 29.2109 30.7095C29.026 30.7095 28.5728 30.7257 28.5072 30.7257C28.4774 30.7257 28.1018 30.7095 27.8334 30.7095C27.7679 30.7095 27.738 30.7203 27.738 30.7527C27.738 30.7742 27.7619 30.785 27.7857 30.785C27.8394 30.785 27.9408 30.7904 27.9885 30.8012C28.1853 30.839 28.233 30.9254 28.2449 31.1089C28.2568 31.2816 28.2568 31.4328 28.2568 32.2748V33.2248ZM28.7338 30.9794C28.7338 30.947 28.7517 30.9254 28.7815 30.9146C28.8412 30.8984 29.0022 30.8822 29.1811 30.8822C29.8191 30.8822 30.2126 31.287 30.2126 31.9618C30.2126 32.372 30.0576 32.6635 29.8489 32.793C29.7118 32.8794 29.5448 32.8956 29.4017 32.8956C29.1393 32.8956 28.865 32.8578 28.7756 32.8092C28.7458 32.793 28.7338 32.7714 28.7338 32.7444V30.9794Z" fill="white"></path><path d="M33.8225 33.2248C33.8225 33.743 33.8225 34.1694 33.7927 34.3961C33.7688 34.5527 33.739 34.6714 33.6197 34.693C33.5661 34.7038 33.4945 34.7146 33.4409 34.7146C33.4051 34.7146 33.3932 34.7308 33.3932 34.747C33.3932 34.7794 33.423 34.7902 33.4886 34.7902C33.578 34.7902 33.7152 34.7794 33.8344 34.7794C33.9596 34.774 34.061 34.774 34.0729 34.774C34.1624 34.774 34.3055 34.7794 34.538 34.7902C34.7706 34.7956 35.0985 34.8064 35.5458 34.8064C35.7783 34.8064 35.826 34.8064 35.8678 34.666C35.8976 34.5527 35.9453 34.1856 35.9453 34.1424C35.9453 34.1046 35.9453 34.0615 35.9095 34.0615C35.8797 34.0615 35.8678 34.0831 35.8558 34.1424C35.8141 34.3637 35.7425 34.4717 35.5875 34.5311C35.4325 34.5904 35.1701 34.5904 35.0151 34.5904C34.4307 34.5904 34.3413 34.5203 34.3234 34.1478C34.3174 34.0345 34.3234 33.4083 34.3234 33.2248V32.7498C34.3234 32.7282 34.3353 32.712 34.3651 32.712C34.4665 32.712 35.0568 32.7228 35.2178 32.739C35.4504 32.7606 35.504 32.8524 35.5279 32.9279C35.5517 32.9981 35.5517 33.0521 35.5517 33.1061C35.5517 33.133 35.5637 33.1546 35.5935 33.1546C35.6352 33.1546 35.6352 33.0953 35.6352 33.0521C35.6352 33.0143 35.6471 32.8146 35.6591 32.7066C35.6769 32.5285 35.7068 32.4367 35.7068 32.4043C35.7068 32.372 35.6948 32.3612 35.6769 32.3612C35.6531 32.3612 35.6292 32.3881 35.5875 32.4313C35.5338 32.4853 35.4504 32.4961 35.3072 32.5069C35.1701 32.5177 34.4367 32.5177 34.3591 32.5177C34.3293 32.5177 34.3234 32.5015 34.3234 32.4637V30.9739C34.3234 30.9361 34.3353 30.92 34.3591 30.92C34.4247 30.92 35.0747 30.9254 35.1761 30.9361C35.4981 30.9685 35.5577 31.0333 35.5994 31.1197C35.6292 31.1844 35.6352 31.2762 35.6352 31.314C35.6352 31.3572 35.6471 31.3842 35.6829 31.3842C35.7068 31.3842 35.7187 31.3518 35.7246 31.3248C35.7366 31.26 35.7485 31.0225 35.7545 30.9685C35.7724 30.8174 35.8022 30.7526 35.8022 30.7148C35.8022 30.6878 35.7962 30.6663 35.7783 30.6663C35.7485 30.6663 35.7246 30.6878 35.6948 30.6932C35.6471 30.704 35.5517 30.7148 35.4384 30.7202C35.3013 30.7256 34.1147 30.7256 34.0729 30.7256L33.8284 30.7148C33.6973 30.7094 33.5363 30.7094 33.3991 30.7094C33.3335 30.7094 33.3037 30.7202 33.3037 30.7526C33.3037 30.7742 33.3276 30.785 33.3514 30.785C33.4051 30.785 33.5064 30.7904 33.5542 30.8012C33.7509 30.839 33.7986 30.9254 33.8106 31.1089C33.8225 31.2816 33.8225 31.4327 33.8225 32.2748V33.2248Z" fill="white"></path><path d="M37.8842 34.1964C37.7769 34.4663 37.6576 34.6714 37.3833 34.7038C37.3356 34.7092 37.2521 34.7146 37.2104 34.7146C37.1806 34.7146 37.1567 34.7254 37.1567 34.747C37.1567 34.7794 37.1925 34.7902 37.27 34.7902C37.5503 34.7902 37.8782 34.774 37.9438 34.774C38.0094 34.774 38.2658 34.7902 38.4089 34.7902C38.4626 34.7902 38.4984 34.7794 38.4984 34.747C38.4984 34.7254 38.4805 34.7146 38.4388 34.7146H38.3791C38.2778 34.7146 38.1525 34.666 38.1525 34.5581C38.1525 34.4609 38.1824 34.3314 38.236 34.1964L38.5938 33.241C38.6057 33.214 38.6236 33.1978 38.6534 33.1978H39.9354C39.9653 33.1978 39.9772 33.2086 39.9891 33.2302L40.5437 34.5581C40.5794 34.6444 40.5437 34.693 40.5079 34.7038C40.484 34.7092 40.4661 34.72 40.4661 34.7416C40.4661 34.774 40.5317 34.774 40.645 34.7794C41.0565 34.7902 41.4918 34.7902 41.5812 34.7902C41.6468 34.7902 41.7005 34.7794 41.7005 34.747C41.7005 34.72 41.6766 34.7146 41.6408 34.7146C41.5812 34.7146 41.4918 34.7092 41.4023 34.6822C41.2771 34.6498 41.1042 34.5635 40.8895 34.0831C40.5258 33.2626 39.5896 31.0333 39.5002 30.8282C39.4286 30.6609 39.4048 30.6339 39.369 30.6339C39.3332 30.6339 39.3093 30.6663 39.2378 30.8444L37.8842 34.1964ZM38.719 33.0035C38.7011 33.0035 38.6892 32.9927 38.7011 32.9657L39.2259 31.5083C39.2557 31.4274 39.2855 31.4274 39.3153 31.5083L39.8818 32.9657C39.8877 32.9873 39.8877 33.0035 39.8579 33.0035H38.719Z" fill="white"></path><path d="M43.8199 32.2748C43.8199 31.4328 43.82 31.2816 43.8319 31.1089C43.8438 30.92 43.8915 30.8282 44.0644 30.8012C44.136 30.7904 44.2195 30.785 44.2612 30.785C44.2851 30.785 44.3089 30.7742 44.3089 30.7527C44.3089 30.7203 44.2791 30.7095 44.2135 30.7095C44.0346 30.7095 43.5993 30.7257 43.5695 30.7257C43.5397 30.7257 43.164 30.7095 42.8957 30.7095C42.8301 30.7095 42.8003 30.7203 42.8003 30.7527C42.8003 30.7742 42.8241 30.785 42.848 30.785C42.9017 30.785 43.003 30.7904 43.0507 30.8012C43.2475 30.839 43.2952 30.9254 43.3071 31.1089C43.3191 31.2816 43.3191 31.4328 43.3191 32.2748V33.2248C43.3191 33.743 43.3191 34.1694 43.2893 34.3962C43.2654 34.5527 43.2356 34.6714 43.1163 34.693C43.0627 34.7038 42.9911 34.7146 42.9374 34.7146C42.9017 34.7146 42.8897 34.7308 42.8897 34.747C42.8897 34.7794 42.9196 34.7902 42.9851 34.7902C43.0746 34.7902 43.2058 34.7848 43.325 34.7794C43.4443 34.7794 43.5457 34.774 43.5695 34.774C43.7424 34.774 43.9273 34.7794 44.1777 34.7902C44.4282 34.7956 44.7382 34.8064 45.1676 34.8064C45.4836 34.8064 45.5015 34.7848 45.5432 34.6606C45.5909 34.5041 45.6327 34.1802 45.6327 34.1209C45.6327 34.0615 45.6267 34.0399 45.5969 34.0399C45.5611 34.0399 45.5492 34.0669 45.5432 34.1101C45.5253 34.2126 45.4657 34.3476 45.3882 34.4339C45.2451 34.5905 44.9827 34.5959 44.6667 34.5959C44.2016 34.5959 44.0465 34.5581 43.9511 34.4717C43.8438 34.3746 43.8199 34.0291 43.8199 33.2356V32.2748Z" fill="white"></path><path d="M48.6802 30.9416L49.4316 30.9523C50.004 30.9631 50.1471 31.0873 50.165 31.2492L50.171 31.3086C50.1769 31.3842 50.1888 31.4004 50.2186 31.4004C50.2425 31.4004 50.2604 31.3788 50.2604 31.3302C50.2604 31.2708 50.2783 30.8984 50.2783 30.7364C50.2783 30.7041 50.2783 30.6717 50.2485 30.6717C50.2246 30.6717 50.1709 30.6879 50.0815 30.6987C49.9861 30.7148 49.849 30.7256 49.6581 30.7256H47.422C47.3505 30.7256 47.1239 30.7148 46.951 30.6987C46.79 30.6879 46.7304 30.6339 46.6886 30.6339C46.6648 30.6339 46.6409 30.7041 46.629 30.7364C46.6171 30.7796 46.4978 31.2438 46.4978 31.2978C46.4978 31.3302 46.5097 31.3464 46.5276 31.3464C46.5515 31.3464 46.5694 31.3356 46.5872 31.2924C46.6051 31.2546 46.623 31.2168 46.6886 31.1251C46.784 30.9955 46.9271 30.9577 47.2968 30.9523L48.1793 30.9416V33.2248C48.1793 33.743 48.1793 34.1694 48.1495 34.3961C48.1257 34.5527 48.0959 34.6714 47.9766 34.693C47.9229 34.7038 47.8514 34.7146 47.7977 34.7146C47.7619 34.7146 47.75 34.7308 47.75 34.747C47.75 34.7794 47.7798 34.7902 47.8454 34.7902C48.0243 34.7902 48.4 34.774 48.4298 34.774C48.4596 34.774 48.8353 34.7902 49.1632 34.7902C49.2288 34.7902 49.2586 34.774 49.2586 34.747C49.2586 34.7308 49.2467 34.7146 49.2109 34.7146C49.1573 34.7146 49.0261 34.7038 48.9426 34.693C48.7637 34.6714 48.7279 34.5527 48.71 34.3961C48.6802 34.1694 48.6802 33.743 48.6802 33.2248V30.9416Z" fill="white"></path><path d="M53.5517 33.8564C53.5517 33.9427 53.5517 34.1694 53.5338 34.3962C53.5219 34.5527 53.4682 34.6714 53.349 34.693C53.2953 34.7038 53.2237 34.7146 53.1701 34.7146C53.1343 34.7146 53.1224 34.7308 53.1224 34.747C53.1224 34.7794 53.1522 34.7902 53.2178 34.7902C53.3966 34.7902 53.7723 34.774 53.8021 34.774C53.8319 34.774 54.2076 34.7902 54.5356 34.7902C54.6012 34.7902 54.631 34.774 54.631 34.747C54.631 34.7308 54.619 34.7146 54.5833 34.7146C54.5296 34.7146 54.3984 34.7038 54.3149 34.693C54.1361 34.6714 54.0824 34.5527 54.0705 34.3962C54.0526 34.1694 54.0526 33.9427 54.0526 33.8564V33.3922C54.0526 33.214 54.0526 33.0467 54.142 32.8524C54.2493 32.6203 55.0842 31.3518 55.2809 31.1359C55.4121 30.9902 55.4777 30.9254 55.597 30.8606C55.6924 30.8066 55.8057 30.785 55.8712 30.785C55.919 30.785 55.9488 30.7688 55.9488 30.7419C55.9488 30.7203 55.913 30.7095 55.8712 30.7095C55.758 30.7095 55.3286 30.7257 55.2929 30.7257C55.2452 30.7257 55.0543 30.7095 54.8993 30.7095C54.8397 30.7095 54.8039 30.7203 54.8039 30.7419C54.8039 30.7688 54.8397 30.7796 54.8933 30.7958C54.9649 30.812 54.9887 30.8714 54.9887 30.947C54.9887 31.0171 54.9649 31.1089 54.8874 31.2223C54.7681 31.4004 54.0108 32.5825 53.8975 32.8092C53.7902 32.6527 52.8958 31.26 52.8004 31.1035C52.7527 31.0225 52.7228 30.9578 52.7228 30.893C52.7228 30.8498 52.7527 30.8174 52.8004 30.7958C52.854 30.7742 52.8898 30.7688 52.8898 30.7473C52.8898 30.7257 52.8779 30.7095 52.8123 30.7095C52.5797 30.7095 52.3531 30.7257 52.3114 30.7257C52.2816 30.7257 51.8344 30.7095 51.7211 30.7095C51.6674 30.7095 51.6436 30.7257 51.6436 30.7473C51.6436 30.7742 51.6734 30.785 51.7032 30.785C51.7569 30.785 51.8701 30.8174 51.9596 30.8714C52.0669 30.9362 52.216 31.0711 52.3651 31.2708C52.5738 31.5515 53.3728 32.739 53.4145 32.8254C53.4921 32.9819 53.5517 33.1007 53.5517 33.3922V33.8564Z" fill="white"></path><defs><linearGradient gradientUnits="userSpaceOnUse" id="paint0_linear" x1="-0.00030579" x2="38.3292" y1="7.86239" y2="7.86239"><stop stop-color="#C60024"></stop><stop offset="0.0728" stop-color="#CF413C"></stop><stop offset="0.1649" stop-color="#D86C5F"></stop><stop offset="0.262" stop-color="#E29485"></stop><stop offset="0.3624" stop-color="#EBB6AA"></stop><stop offset="0.467" stop-color="#F2D2C9"></stop><stop offset="0.5771" stop-color="#F8E6E1"></stop><stop offset="0.6952" stop-color="#FCF5F3"></stop><stop offset="0.8269" stop-color="#FEFDFD"></stop><stop offset="1" stop-color="white"></stop></linearGradient><linearGradient gradientUnits="userSpaceOnUse" id="paint1_linear" x1="82.0011" x2="43.67" y1="7.86239" y2="7.86239"><stop stop-color="#C60024"></stop><stop offset="0.0728" stop-color="#CF413C"></stop><stop offset="0.1649" stop-color="#D86C5F"></stop><stop offset="0.262" stop-color="#E29485"></stop><stop offset="0.3624" stop-color="#EBB6AA"></stop><stop offset="0.467" stop-color="#F2D2C9"></stop><stop offset="0.5771" stop-color="#F8E6E1"></stop><stop offset="0.6952" stop-color="#FCF5F3"></stop><stop offset="0.8269" stop-color="#FEFDFD"></stop><stop offset="1" stop-color="white"></stop></linearGradient></defs></svg>